# xmcd
#
# Track frame offsets: 
#        150
#        13692
#        29150
#        40393
#        52386
#        68794
#        82256
#        99291
#        117216
#        132582
#        150367
#        164783
#        180664
#        196273
#        206236
#        213354
#        222964
#        234020
#        245347
#        256936
#        273209
#        282771
#        302072
#        325538
#
# Disc length: 4526 seconds
#
# Revision: 0
# Processed by: cddbd v1.5.2PL0 Copyright (c) Steve Scherf et al.
# Submitted via: ExactAudioCopy v0.95a4
#
DISCID=6011ac18
DTITLE=Hank Williams III - The Orange Peel - Asheville NC 8-21-05
DYEAR=2005
DGENRE=Country
TTITLE0=Straight to Hell
TTITLE1=Trashville
TTITLE2=Thrown Out of a Bar
TTITLE3=Little Bit of Smoke and a Whole Lotta Wine
TTITLE4=I Don't Know
TTITLE5=Crazed Country Rebel
TTITLE6=7 Months, 39 Days
TTITLE7=Legend of D. Ray White
TTITLE8=Dick in Dixie
TTITLE9=Mississippi Mud
TTITLE10=Cecil Brown
TTITLE11=Devil is My Friend
TTITLE12=Good Hearted Woman
TTITLE13=The South's Gonna Do It Again
TTITLE14=Okie From Muskogee
TTITLE15=The Ride
TTITLE16=If You Don't Like Hank Williams
TTITLE17=I'll Never Get Out of This World Alive
TTITLE18=Family Tradition
TTITLE19=Cocaine Blues
TTITLE20=Hoedown
TTITLE21=5 Shots of Whiskey
TTITLE22=Not Everybody Likes Us
TTITLE23=Nighttime Ramblin' Man
EXTD=
EXTT0=
EXTT1=
EXTT2=
EXTT3=
EXTT4=
EXTT5=
EXTT6=
EXTT7=
EXTT8=
EXTT9=
EXTT10=
EXTT11=
EXTT12=
EXTT13=
EXTT14=
EXTT15=
EXTT16=
EXTT17=
EXTT18=
EXTT19=
EXTT20=
EXTT21=
EXTT22=
EXTT23=
PLAYORDER=
